<svg xmlns="http://www.w3.org/2000/svg" viewBox="0 0 104 104"><defs><style>.cls-1{fill:#fff;stroke:#263238;stroke-linecap:round;stroke-linejoin:round;stroke-width:3.5px;}.cls-2{fill:#2d3e50;}</style></defs><circle class="cls-1" cx="52" cy="52" r="50"/><path class="cls-2" d="M70.71,35.44a25.07,25.07,0,0,0-8-6A25.49,25.49,0,0,0,58,27.74a25.06,25.06,0,0,0-27.24,37.6l1.68-1.06c-.25-.56-.51-1.13-.73-1.7l-.16-.43c-.06-.15-.1-.29-.15-.44s-.2-.58-.29-.87a23.37,23.37,0,0,1-.71-10.61,21.78,21.78,0,0,1,.82-3.37,23.59,23.59,0,0,1,1.33-3.15,21.77,21.77,0,0,1,4-5.42,21.09,21.09,0,0,1,5.32-3.87,20.78,20.78,0,0,1,6.14-2,22.61,22.61,0,0,1,3.19-.25H52l.8,0c.53,0,1.06.11,1.58.19.27,0,.53.08.79.14l-2.73,4.56Z"/><path class="cls-2" d="M56.83,76.52a24.8,24.8,0,0,1-10.94-.28,25,25,0,0,1-9-4.36l4.07-1.2h0l13.54-4-1.8,5c.26,0,.53,0,.79,0,.53,0,1.06-.05,1.59-.12l.79-.11.79-.14a23.62,23.62,0,0,0,3.09-.87,20.65,20.65,0,0,0,5.63-3.15,21.38,21.38,0,0,0,4.47-4.83,21.73,21.73,0,0,0,2.85-6.09A22.6,22.6,0,0,0,73.35,53a20.62,20.62,0,0,0,.17-2.94c0-.17,0-.35,0-.52a22.48,22.48,0,0,0-.66-4.84l2.77-1A25.08,25.08,0,0,1,60.15,75.62a24,24,0,0,1-3.32.9Z"/></svg>